<?xml version="1.0" encoding="UTF-8" standalone="no"?><!DOCTYPE svg PUBLIC "-//W3C//DTD SVG 1.1//EN" "http://www.w3.org/Graphics/SVG/1.1/DTD/svg11.dtd"><svg width="100%" height="100%" viewBox="0 0 64 64" version="1.1" xmlns="http://www.w3.org/2000/svg" xmlns:xlink="http://www.w3.org/1999/xlink" xml:space="preserve" xmlns:serif="http://www.serif.com/" style="fill-rule:evenodd;clip-rule:evenodd;"><path d="M51.12,1.269c0.511,-0 1.023,0.195 1.414,0.586l9.611,9.611c0.391,0.391 0.586,0.903 0.586,1.415c-0,0.512 -0.195,1.023 -0.586,1.414l-17.704,17.705l17.704,17.705c0.391,0.39 0.586,0.902 0.586,1.414c-0,0.512 -0.195,1.024 -0.586,1.415l-9.611,9.611c-0.391,0.391 -0.903,0.586 -1.415,0.586c-0.53,0.001 -1.04,-0.21 -1.414,-0.586l-17.705,-17.704l-17.705,17.704c-0.39,0.391 -0.902,0.586 -1.414,0.586c-0.531,0.001 -1.04,-0.21 -1.415,-0.586l-9.611,-9.611c-0.376,-0.375 -0.587,-0.884 -0.586,-1.415c0,-0.512 0.195,-1.023 0.586,-1.414l17.704,-17.705l-17.704,-17.705c-0.376,-0.374 -0.587,-0.884 -0.586,-1.414c0,-0.512 0.195,-1.024 0.586,-1.415l9.611,-9.611c0.391,-0.391 0.903,-0.586 1.415,-0.586c0.512,0 1.023,0.195 1.414,0.586l17.705,17.704l17.705,-17.704c0.39,-0.391 0.902,-0.586 1.414,-0.586l0.001,0Z" style="fill:none;fill-rule:nonzero;stroke:#31c3bd;stroke-width:2px;"/></svg>